<svg xmlns="http://www.w3.org/2000/svg" xml:space="preserve" id="Capa_1" x="0" y="0" style="enable-background:new 0 0 1125.91 377.59" version="1.1" viewBox="0 0 1125.91 377.59"><style>.st0{fill:#ff4c5e}</style><path id="Trazado_14926_00000034076471531346856910000011766111761433987511_" d="M288.77 113.5v175.14c0 1.77-1.44 3.2-3.17 3.2h-26.67c-.72 0-1.38-.24-1.91-.65a3.196 3.196 0 0 1-1.27-2.56V120.09c.17-1.34 1.17-2.43 2.65-2.76l26.51-6.95c.83-.17 1.69-.03 2.41.44.15.09.28.19.41.31.04.03.07.06.11.1.51.51.85 1.19.92 1.94 0 .11.01.22.01.33z" class="st0"/><path id="Trazado_14929_00000002382087597424867770000002403527609796152214_" d="M718.23 107.59c-56.19 0-93.96 37.75-93.96 93.94 0 55.91 37.77 93.49 93.96 93.49 28.08 0 51.58-9.36 68.03-25.66 16.45-16.28 25.9-39.57 25.9-67.39 0-56.44-37.74-94.38-93.93-94.38zm-.47 159.84c-30.32 0-60.91-20.38-60.91-65.9 0-39.08 25.04-66.35 60.91-66.35v.03c36.69 0 61.35 26.84 61.35 66.79 0 39.14-24.66 65.43-61.35 65.43z" class="st0"/><path id="Trazado_14929_00000026129267740480282630000003637419331678732447_" d="M718.23 107.59c-56.19 0-93.96 37.75-93.96 93.94 0 55.91 37.77 93.49 93.96 93.49 28.08 0 51.58-9.36 68.03-25.66 16.45-16.28 25.9-39.57 25.9-67.39 0-56.44-37.74-94.38-93.93-94.38zm-.47 159.84c-30.32 0-60.91-20.38-60.91-65.9 0-39.08 25.04-66.35 60.91-66.35v.03c36.69 0 61.35 26.84 61.35 66.79 0 39.14-24.66 65.43-61.35 65.43z" class="st0"/><path id="Trazado_14930_00000026148949375855856480000006486561493920122029_" d="M954.88 241.03c0 33.02-25.73 53.51-67.21 53.51-21.9.33-43.43-5.63-62.29-17.01-1.52-.88-2.02-2.84-1.13-4.36l.14-.25c4.25-5.94 9.06-12.81 12.37-17.51.64-.88 1.6-1.35 2.6-1.35.52 0 1.08.11 1.57.41 14.69 8.39 31.67 13.39 45.45 13.39 25.49 0 34.57-13.39 34.57-25.93 0-19.6-19.22-25.95-39.54-32.69-26.12-8.64-53.1-17.59-53.1-53.12 0-30.04 24.22-49.45 61.68-49.45 18.64.03 38.02 5.61 53.18 15.24 1.08.69 1.63 1.93 1.44 3.18l-5.25 19.74-.06.28a3.168 3.168 0 0 1-3.76 2.51c-.36-.06-.69-.19-1.02-.39-14.63-8.67-28.63-13.06-42.8-13.39l-1.74-.03c-13.86 0-30.01 5.94-30.01 22.75 0 17.95 19.08 24.22 39.32 30.87 26.05 8.6 55.59 18.29 55.59 53.6z" class="st0"/><path d="M522.46 108.01c-18.2 0-34.54 7.07-46.06 19.93-7.86 7.68-16.65 24.16-16.65 24.16v-39.07l-.08-.5c-.17-1.55-1.49-2.71-3.07-2.71h-25.73c-1.64 0-2.99 1.16-3.19 2.71l-.05.53-.03 245.13c.03.22.08.47.14.69.36 1.75 2.02 2.8 3.83 2.44l25.68-5.52a3.111 3.111 0 0 0 2.49-3.05V289l.2-.22v-4.28l5.49 1.88c14.08 4.83 28.57 7.37 43.13 7.57l3.94.11c34.76 0 62.68-14.36 78.63-40.48.11-.17.2-.34.31-.5 8.29-14.92 12.7-33.06 12.7-52.41.02-57.16-31.29-92.66-81.68-92.66zM566 229.57c-.5 1.3-1.13 2.71-1.91 4.22-9.09 18.78-25.51 30.26-46.25 32.31-2.07.28-4.47.44-7.18.44-1.85 0-3.56 0-5.3-.11-25.62-1.08-39.32-9.79-44.04-13.5l-1.58-1.24v-35.23c0-5.52.31-10.93.94-16.57.22-2.02.53-4.02.94-6.07.14-1.66.47-3.2.78-4.58.25-1.47.61-2.99 1.08-4.55l.05-.47c.06-.45.19-.83.39-1.22.52-2.35 1.16-4.42 1.96-6.46.64-1.97 1.44-4.25 2.55-6.52a76.15 76.15 0 0 1 1.79-3.78c1.72-3.5 3.67-6.71 5.86-9.52l.77-1.08c1.19-1.49 2.41-3.04 3.92-4.47 9.55-10.18 22.28-15.55 36.78-15.55 34.35 0 54.05 23.03 54.05 63.2 0 11.06-1.93 21.7-5.6 30.75zM224.98 111.22a2.4 2.4 0 0 0-.99-.69c-.39-.17-.81-.25-1.25-.25h-25.73c-1.74 0-3.17 1.44-3.17 3.2v3.72l-5.72-1.96c-14.08-4.83-28.57-7.37-43.12-7.57l-3.95-.11c-34.76 0-62.68 14.39-78.63 40.48-.11.2-.2.34-.31.5-8.31 14.92-12.7 33.06-12.7 52.41 0 57.19 31.31 92.69 81.7 92.69 18.2 0 34.54-7.1 46.04-19.96.91-.92 1.6-1.72 2.43-2.85.97-1.22 1.71-2.24 2.46-3.26 1.02-1.46 1.8-2.71 2.38-3.75l.61-.94c.16-.25.33-.44.44-.69l.41-.69c.12-.19.23-.36.36-.58l7.6-11.37v39.04l.05.3c0 .09 0 .14.03.2.03.16.06.3.09.44.02.17.08.28.16.42.06.16.14.33.25.47.11.16.25.33.39.47.14.13.3.27.47.38.16.11.36.22.52.31.09.02.14.05.2.05.3.11.66.17.99.17h25.74c.41 0 .8-.08 1.16-.2.16-.08.36-.16.5-.24.16-.12.33-.23.47-.34.27-.22.52-.52.69-.85.11-.17.16-.34.22-.53.08-.16.11-.36.14-.55.05-.14.05-.31.05-.47V113.49c-.05-.89-.4-1.69-.98-2.27zm-31.17 73.94c0 5.52-.3 10.93-.94 16.57-.22 2.02-.53 4.02-.94 6.07-.14 1.63-.47 3.12-.78 4.58-.24 1.47-.6 2.99-1.07 4.55l-.06.47c-.05.45-.19.83-.39 1.22-.52 2.35-1.16 4.42-1.96 6.49-.64 1.96-1.44 4.22-2.54 6.49-.56 1.27-1.17 2.52-1.8 3.78-1.72 3.53-3.7 6.74-5.88 9.55l-.75 1.05c-1.11 1.41-2.38 3.04-3.92 4.47-9.54 10.18-22.27 15.58-36.77 15.58-34.35 0-54.06-23.06-54.06-63.24 0-11.06 1.93-21.73 5.63-30.78.47-1.25 1.11-2.63 1.88-4.19 9.09-18.75 25.51-30.26 46.25-32.31 3.45-.47 8.21-.58 12.48-.33 25.6 1.08 39.32 9.79 44.04 13.5l1.58 1.24v35.24zM288 42.78c8.48 0 12.64 3.27 14.84 11.68 1.07 4.08.58 7.65-1.47 10.92l-.33.52-.21.39c-.09.13-.24.33-.39.53l-.21.25-.28.33-.26.34c-.64.83-1.44 1.66-2.36 2.45l-.07.06-.07.06c-.54.47-.96.83-1.32 1.11l-.3.24-.29.25c-.46.4-1.25.9-1.51 1.06l-.45.29-.43.31c-.42.3-.8.54-1.32.8l-.4.2-.26.1-.37.22-.94.48-.33.29c-.22.13-.33.18-.33.18l-.44.2-.43.22c-.16.08-.53.27-.7.35l-.84.3-.9.44c-.7.34-1.4.65-2.12.92a75.19 75.19 0 0 1-8.08 2.61l-11.39 2.98c-1.57-2.46-3.33-5.96-4.81-10.81l-.04-.15-.05-.15c-.61-1.87-.96-3.61-1.04-4.28l-.04-.34-.05-.34c-1.08-6.8 1.04-12.52 6.3-17.02l.03-.03.03-.03c.68-.59.92-.77.96-.79l.18-.13.18-.13c3.04-2.28 7.2-4.18 11.71-5.36 3.88-1 7.45-1.52 10.6-1.52m0-17.91c-4.66 0-9.73.7-15.15 2.11-6.77 1.77-12.98 4.65-17.93 8.36-.69.49-1.43 1.1-2.27 1.82-10.01 8.55-14.43 20.44-12.36 33.45.26 2.19.95 5.11 1.79 7.68 4.75 15.49 12.28 22.49 15.3 24.77l1.01.77 21.55-5.63c3.37-.88 6.64-1.93 9.98-3.22 1.19-.46 2.38-.97 3.56-1.55.97-.35 1.84-.78 2.68-1.21.86-.38 1.73-.84 2.62-1.39l.27-.1c.26-.11.48-.26.68-.44 1.36-.7 2.52-1.41 3.66-2.24 1.1-.7 2.36-1.56 3.56-2.59.68-.54 1.35-1.11 2.02-1.7 1.89-1.62 3.53-3.35 4.9-5.13l.53-.62c.68-.9 1.48-1.93 2.11-3.11 4.7-7.47 5.96-16.12 3.64-24.99-4.26-16.34-15.69-25.04-32.15-25.04zm787.84 246.05c0 .28-.03.52-.11.86l-.11.41-4.91 19.77a2.923 2.923 0 0 1-2.82 2.18h-.55l-15.1-.03c-27.78 0-44.12-7.4-52.3-26.06-4.67-10.6-6.68-24.79-6.68-43.35v-72.17h-28.11c-1.19 0-2.24-.64-2.79-1.66a3.36 3.36 0 0 1-.39-1.55c0-.28.03-.55.14-.97l5.49-21.65a3.214 3.214 0 0 1 3.09-2.37h22.56V76.59c0-1.52 1.05-2.82 2.68-3.18l26.51-6.96c.83-.17 1.68-.03 2.4.44.72.44 1.21 1.16 1.38 1.91.06.28.08.52.08.77v54.76h44.04c1.16 0 2.24.64 2.76 1.6.28.52.41 1.05.41 1.57 0 .3-.03.58-.14.94l-5.49 21.71c-.39 1.38-1.66 2.37-3.09 2.37h-38.49v73.08c0 13.78 1.19 24.66 6.54 31.97.75.99 1.55 1.93 2.46 2.79 5.3 5.11 12.84 7.12 22.31 7.68h15.32c.06 0 .14 0 .19.03.99.06 1.88.61 2.32 1.41.29.5.4.97.4 1.44zM406.86 113.51c0 .34-.04.6-.13.98l-.13.43-5.45 21.95c-.04.17-.09.34-.17.51a3.23 3.23 0 0 1-2.94 1.92s-1.41.13-2.17.21c-1.45.13-2.9.3-4.26.51-3.41.51-6.56 1.28-9.46 2.26-27.06 9.16-32.39 38.27-32.77 70.1-.04.3-.04.64-.04.98-.04 1.19-.04 2.39-.04 3.58v71.68c0 1.79-1.45 3.2-3.2 3.2h-26.21c-1.75 0-3.2-1.41-3.2-3.2V113.47c0-1.49 1.11-2.73 2.51-3.07h.04c.17-.04.34-.04.47-.09.09-.04.13-.04.17-.04h26.21c1.11 0 2.05.55 2.64 1.41.09.13.17.26.21.38.04.09.04.13.09.17.04.09.04.17.09.26v.04c.04.13.04.26.09.38v.21l.09.26v27.69c7.46-8.65 16.24-16.32 18.92-18.58 0 0 0-.04.04-.04 4.99-4.56 11.25-8.01 18.24-10.06 1.92-.55 3.88-1.02 5.88-1.32.68-.17 1.36-.26 2.05-.34 2.34-.3 5.41-.47 7.16-.47 1.65 0 2.14.04 2.92.24.84.28 1.51.66 1.94 1.42.28.57.41 1.08.41 1.59z" class="st0"/><path d="m403.86 111.41-1.33.1.9-.1c.14-.01.28-.02.43 0z" style="fill:#65ff5c"/></svg>