<svg xmlns="http://www.w3.org/2000/svg" width="550" height="120" fill="none"><path fill="#000" d="M479.095 71.16h31.395l.195 1.625h-31.98l.39-1.625Zm7.345 34.32c0 .13-.065.26-.195.39-.086.087-.238.13-.455.13h-24.96c-.216 0-.39-.043-.52-.13-.13-.13-.195-.26-.195-.39 0-.26.109-.433.325-.52.174-.087.347-.152.52-.195l1.3-.455c1.82-.65 3.705-2.037 5.655-4.16 1.95-2.123 3.489-5.135 4.615-9.035l18.33-64.545c.694-2.47.759-4.442.195-5.915-.52-1.473-1.365-2.687-2.535-3.64-.693-.563-1.213-.888-1.56-.975-.346-.13-.52-.303-.52-.52 0-.217.065-.347.195-.39.13-.087.325-.13.585-.13h34.905c.304 0 .52.043.65.13.13.043.195.173.195.39 0 .217-.151.412-.455.585-.303.173-.845.433-1.625.78-.563.26-.953.672-1.17 1.235-.173.52-.043 1.495.39 2.925l25.025 80.145c.304.953.715 1.712 1.235 2.275.564.52 1.192.888 1.885 1.105.39.13.65.26.78.39.174.087.26.26.26.52 0 .13-.065.26-.195.39-.13.087-.325.13-.585.13h-37.31c-.26 0-.455-.043-.585-.13-.13-.13-.195-.26-.195-.39 0-.26.065-.412.195-.455.174-.043.455-.13.845-.26l2.21-.65c1.257-.39 1.994-.867 2.21-1.43.217-.607.13-1.56-.26-2.86l-23.27-74.295 2.08-5.525-20.345 71.5c-.606 2.123-.52 4.03.26 5.72.78 1.647 2.037 3.077 3.77 4.29 1.777 1.17 3.857 2.123 6.24 2.86l1.3.39c.304.087.499.173.585.26.13.087.195.238.195.455Z"/><path fill="#000" d="M397.998 71.16h31.395l.195 1.625h-31.98l.39-1.625Zm7.345 34.32c0 .13-.065.26-.195.39-.087.087-.239.13-.455.13h-24.96c-.217 0-.39-.043-.52-.13-.13-.13-.195-.26-.195-.39 0-.26.108-.433.325-.52.173-.087.346-.152.52-.195l1.3-.455c1.82-.65 3.705-2.037 5.655-4.16 1.95-2.123 3.488-5.135 4.615-9.035l18.33-64.545c.693-2.47.758-4.442.195-5.915-.52-1.473-1.365-2.687-2.535-3.64-.694-.563-1.214-.888-1.56-.975-.347-.13-.52-.303-.52-.52 0-.217.065-.347.195-.39.13-.087.325-.13.585-.13h34.905c.303 0 .52.043.65.13.13.043.195.173.195.39 0 .217-.152.412-.455.585-.304.173-.845.433-1.625.78-.564.26-.954.672-1.17 1.235-.174.52-.044 1.495.39 2.925l25.025 80.145c.303.953.715 1.712 1.235 2.275.563.52 1.191.888 1.885 1.105.39.13.65.26.78.39.173.087.26.26.26.52 0 .13-.065.26-.195.39-.13.087-.325.13-.585.13h-37.31c-.26 0-.455-.043-.585-.13-.13-.13-.195-.26-.195-.39 0-.26.065-.412.195-.455.173-.043.455-.13.845-.26l2.21-.65c1.256-.39 1.993-.867 2.21-1.43.216-.607.13-1.56-.26-2.86l-23.27-74.295 2.08-5.525-20.345 71.5c-.607 2.123-.52 4.03.26 5.72.78 1.647 2.036 3.077 3.77 4.29 1.776 1.17 3.856 2.123 6.24 2.86l1.3.39c.303.087.498.173.585.26.13.087.195.238.195.455ZM316.722 15h62.725c1.127 0 2.145-.108 3.055-.325.91-.26 1.668-.498 2.275-.715.65-.26 1.062-.39 1.235-.39.13 0 .26.087.39.26.13.13.238.585.325 1.365l4.03 29.055c.087.39.087.672 0 .845a.625.625 0 0 1-.26.325 1.057 1.057 0 0 1-.52 0c-.173-.087-.325-.26-.455-.52-3.813-8.06-7.237-14.105-10.27-18.135-3.033-4.03-5.785-6.717-8.255-8.06-2.427-1.387-4.593-2.08-6.5-2.08h-2.47v85.54c0 .52.26.932.78 1.235.52.303 1.257.542 2.21.715l3.64.65c.693.13 1.04.368 1.04.715s-.282.52-.845.52h-41.535c-.26 0-.477-.043-.65-.13-.13-.13-.195-.26-.195-.39 0-.347.368-.585 1.105-.715l3.575-.65c.997-.173 1.733-.412 2.21-.715.52-.303.78-.715.78-1.235v-85.54h-2.47c-1.69 0-3.727.78-6.11 2.34-2.34 1.517-5.092 4.312-8.255 8.385-3.12 4.03-6.673 9.88-10.66 17.55-.13.26-.282.433-.455.52a.81.81 0 0 1-.455 0c-.173-.087-.282-.195-.325-.325-.043-.173-.043-.455 0-.845l4.03-29.055c.087-.78.195-1.235.325-1.365.13-.173.26-.26.39-.26.173 0 .563.13 1.17.39.607.217 1.387.455 2.34.715a13.74 13.74 0 0 0 3.055.325Zm-8.764 69.42c0 6.37-2.773 11.57-8.32 15.6-5.547 3.987-13.823 5.98-24.83 5.98h-51.74c-.303 0-.52-.043-.65-.13-.13-.13-.195-.26-.195-.39 0-.347.347-.585 1.04-.715l3.64-.65c1.04-.217 1.798-.563 2.275-1.04.477-.52.715-1.3.715-2.34v-81.9c0-.52-.195-.91-.585-1.17-.347-.303-1.148-.563-2.405-.78l-3.64-.65c-.693-.13-1.04-.368-1.04-.715 0-.13.065-.238.195-.325.13-.13.347-.195.65-.195h36.01c9.36 0 17.29 1.148 23.79 3.445 6.5 2.253 11.44 5.373 14.82 9.36 3.38 3.987 5.07 8.558 5.07 13.715 0 4.507-1.322 8.407-3.965 11.7-2.6 3.25-6.283 5.763-11.05 7.54-4.767 1.733-10.378 2.6-16.835 2.6l4.42-.52c6.327 0 11.938.91 16.835 2.73 4.94 1.82 8.797 4.355 11.57 7.605 2.817 3.25 4.225 6.998 4.225 11.245Zm-43.42-20.15h-9.295v-1.56h9.295c3.207 0 5.85-.65 7.93-1.95 2.08-1.343 3.618-3.423 4.615-6.24.997-2.86 1.495-6.543 1.495-11.05 0-5.46-.932-10.183-2.795-14.17-1.863-4.03-4.312-7.15-7.345-9.36-3.033-2.21-6.327-3.315-9.88-3.315h-1.43v84.89c0 1.083.347 1.842 1.04 2.275.693.39 1.647.585 2.86.585h5.98c2.86 0 5.33-.823 7.41-2.47 2.08-1.69 3.683-4.052 4.81-7.085 1.127-3.077 1.69-6.76 1.69-11.05 0-6.197-1.387-10.985-4.16-14.365-2.73-3.423-6.803-5.135-12.22-5.135Z"/><path fill="#000" d="M222.33 75.71c-.303 4.463-1.452 8.667-3.445 12.61-1.95 3.9-4.593 7.323-7.93 10.27-3.293 2.947-7.15 5.243-11.57 6.89-4.42 1.647-9.23 2.47-14.43 2.47-9.013 0-16.792-1.907-23.335-5.72-6.5-3.813-11.505-9.143-15.015-15.99-3.51-6.89-5.265-14.95-5.265-24.18 0-7.193 1.083-13.758 3.25-19.695 2.21-5.98 5.33-11.137 9.36-15.47 4.03-4.333 8.84-7.67 14.43-10.01 5.633-2.383 11.873-3.575 18.72-3.575 3.813 0 7.085.39 9.815 1.17 2.73.78 4.897 1.582 6.5 2.405 1.603.78 2.622 1.17 3.055 1.17.65 0 1.668-.39 3.055-1.17 1.387-.78 2.73-1.56 4.03-2.34 1.3-.78 2.123-1.17 2.47-1.17.217 0 .412.108.585.325.173.173.325.498.455.975l5.655 28.535c.087.433.087.78 0 1.04-.087.217-.303.368-.65.455-.303.043-.563-.022-.78-.195-.173-.173-.368-.498-.585-.975-2.6-6.933-5.438-12.393-8.515-16.38-3.033-3.987-6.153-6.825-9.36-8.515-3.163-1.733-6.24-2.6-9.23-2.6-3.033 0-5.872.802-8.515 2.405-2.643 1.603-5.005 3.987-7.085 7.15-2.037 3.12-3.64 6.998-4.81 11.635-1.127 4.593-1.69 9.945-1.69 16.055 0 10.053 1.148 18.308 3.445 24.765 2.297 6.457 5.46 11.223 9.49 14.3 4.073 3.033 8.732 4.55 13.975 4.55 5.503 0 10.335-1.755 14.495-5.265 4.203-3.51 6.933-8.905 8.19-16.185.087-.303.173-.52.26-.65.087-.173.238-.26.455-.26.217 0 .368.108.455.325.087.217.108.498.065.845Z"/><path fill="#35575A" d="M123.04 15.839C125.195 7.269 117.837 0 109 0H62v119h47c8.837 0 16.195-7.269 14.04-15.839a64.638 64.638 0 0 0-2.836-8.653 64.075 64.075 0 0 0-13.656-20.763A62.943 62.943 0 0 0 85.206 59.5a62.943 62.943 0 0 0 21.342-14.245 64.075 64.075 0 0 0 13.656-20.763 64.611 64.611 0 0 0 2.836-8.653Z"/><path fill="#609EA2" d="M2.002 59.5 2 60h.008A60 60 0 0 0 62 119V0A60 60 0 0 0 2.008 59H2c0 .167 0 .333.002.5Z"/></svg>