<svg xmlns="http://www.w3.org/2000/svg" width="1156" height="228"><g data-name="Purple Blue Green Logo Light" transform="translate(-407 3632)"><path fill="#6b7fe9" d="M559.991-3526.318a45.131 45.131 0 0 1 42.385-45.048 2.917 2.917 0 0 0 2.746-2.912 22.4 22.4 0 0 0-22.4-22.4h-28.07a2.917 2.917 0 0 0-2.912 2.746 45.131 45.131 0 0 1-90.1 0 2.917 2.917 0 0 0-2.912-2.746h-28.076a22.4 22.4 0 0 0-22.4 22.4v95.921a22.4 22.4 0 0 0 22.4 22.4h152.069a22.4 22.4 0 0 0 22.4-22.4 2.917 2.917 0 0 0-2.746-2.912 45.135 45.135 0 0 1-42.384-45.049Z" data-name="Path 4273"/><circle cx="33.849" cy="33.849" r="33.849" fill="#65dac4" data-name="Ellipse 59" transform="translate(472.839 -3630.527)"/><circle cx="33.849" cy="33.849" r="33.849" fill="#56d676" data-name="Ellipse 60" transform="translate(571.273 -3560.167)"/><path fill="#cfd2e6" d="M751.337-3576.92c-17.211 0-29.9 7.812-35.887 15.99l-.61-13.548h-29.783v117.178h31.37v-65.546c0-16.234 12.084-25.023 25.633-25.023 13.183 0 23.314 8.789 23.314 25.023v65.546h31.37v-66.28c0-15.868 12.328-24.291 25.755-24.291s23.436 8.789 23.436 25.023v65.548H877.3v-73.6c0-28.563-19.164-46.018-46.018-46.018-17.455 0-32.347 8.3-40.647 20.751-6.829-13.311-21.477-20.753-39.298-20.753Zm194.578 122.063c18.187 0 30.516-6.836 38.206-16.6l.61 14.159h30.638v-117.18h-30.638l-.61 14.159c-7.69-9.643-20.018-16.6-38.206-16.6-32.225 0-56.515 25.267-56.515 60.787s24.291 61.275 56.515 61.275ZM984-3516.133c0 18.8-13.3 33.445-31.981 33.445-18.8 0-31.492-14.648-31.492-33.445 0-18.676 12.7-32.835 31.492-32.835 18.675 0 31.981 14.16 31.981 32.835Zm81.182-58.345h-30.273v117.178h31.372v-60.053c0-24.168 14.526-31.614 28.319-31.614a43.909 43.909 0 0 1 14.523 2.689l2.441-27.952a47.446 47.446 0 0 0-15.258-2.685c-13.183 0-24.535 6.225-30.516 18.432Zm124.148-2.441c-18.8 0-30.882 6.836-38.572 16.6l-.61-14.159H1120v166h31.248v-61.149c7.812 8.911 20.873 14.77 38.084 14.77 33.2 0 56.759-25.145 56.759-60.543 0-35.643-23.558-61.52-56.76-61.52Zm-38.206 61.4c0-18.676 13.3-33.323 31.858-33.323 18.676 0 31.736 14.4 31.736 33.323 0 18.554-13.183 32.591-31.736 32.591-18.431 0-31.858-14.041-31.858-32.594Zm139.527 58.219v-117.178h-31.37v117.178Zm-15.751-136.831c10.62 0 18.065-7.324 18.065-17.943 0-10.742-7.446-18.065-18.065-18.065s-17.943 7.445-17.943 18.061 7.324 17.947 17.943 17.947Zm104.622 17.211c-18.8 0-30.882 6.836-38.572 16.6l-.61-14.159h-30.15v166h31.248v-61.148c7.812 8.911 20.873 14.77 38.084 14.77 33.2 0 56.759-25.145 56.759-60.543 0-35.643-23.558-61.52-56.759-61.52Zm-38.206 61.4c0-18.676 13.3-33.323 31.858-33.323 18.676 0 31.736 14.4 31.736 33.323 0 18.554-13.183 32.591-31.736 32.591-18.431 0-31.857-14.04-31.857-32.593Zm209.592 24.288a92.874 92.874 0 0 1-39.67 8.911c-19.286 0-33.934-7.812-37.107-24.168h84.712c7.69-43.332-19.652-70.43-55.661-70.43-34.788 0-60.177 25.145-60.177 61.032 0 36.5 26.61 61.032 68.111 61.032 17.089 0 32.835-4.516 44.187-10.986Zm-76.289-36.253c1.343-13.3 12.572-23.07 29.3-23.07 16.112 0 26 10.009 26.854 23.07Z" data-name="Path 4625"/><path fill="none" d="M407-3632h1156v228H407z" data-name="Rectangle 37"/></g></svg>