<svg xmlns="http://www.w3.org/2000/svg" width="3000" height="485" fill="none"><path fill="#FF305B" d="M250.887 111.233h-59.28v103.031h59.28c11.502 0 23.745-2.907 30.203-13.635 4.368-7.257 6.442-15.359 6.442-23.977v-27.808c0-8.617-2.074-16.719-6.442-23.976-6.458-10.729-18.701-13.635-30.203-13.635Zm447.966 200.349.166-.143.16-.15c7.609-7.078 11.691-16.149 11.691-26.552v-141.14c0-10.216-4.219-18.992-11.866-25.664-5.003-4.563-11.835-6.932-18.602-8.3-7.126-1.441-15.758-2.073-25.654-2.073-9.895 0-18.527.632-25.653 2.073-6.767 1.368-13.6 3.738-18.603 8.301-7.646 6.672-11.865 15.448-11.865 25.663v141.14c0 10.403 4.082 19.474 11.691 26.552l.16.15.166.143c5.025 4.341 11.87 6.541 18.614 7.807 7.055 1.325 15.626 1.91 25.49 1.91 9.865 0 18.436-.585 25.491-1.91 6.744-1.266 13.589-3.466 18.614-7.807Z"/><path fill="#FF305B" fill-rule="evenodd" d="m2.61 84.709-.234.526-.183.546C.614 90.503 0 95.708 0 101.098v339.995c0 9.885 2.232 19.757 9.29 26.792 7.05 7.027 16.932 9.245 26.829 9.245h81.591c4.617 0 9.145-.68 13.43-2.249 3.631-1.223 7.627-3.039 10.809-6.005l68.174-56.453.07-.06c3.998-3.416 6.891-7.692 8.633-12.6 2.093-4.937 2.907-10.349 2.907-15.861v-13.92c15.974-1.212 30.15-3.776 42.383-7.841l.084-.027.084-.03c14.997-5.231 27.764-11.966 37.911-20.455l.026-.021 68.429-56.664.047-.04c13.127-11.102 22.49-24.594 27.787-40.38 3.997-11.408 6.471-23.544 7.483-36.36v136.912c0 17.557 2.439 34.612 7.334 51.127l.035.119.038.118c5.545 17.371 15.243 32.679 28.852 45.856l.06.059.061.057c14.252 13.416 33.142 23.609 56.049 30.981C522.135 481.27 551.752 485 586.844 485c35.264 0 64.803-3.002 88.283-9.305 23.131-5.865 42.156-14.528 56.258-26.557l.055-.047 67.725-56.515.037-.031c13.511-11.101 23.12-24.641 28.439-40.547 5.014-14.994 7.458-31.15 7.458-48.372V124.709c0-17.525-2.431-33.846-7.443-48.852-5.349-16.38-15.4-30.148-29.658-41.242-14.079-11.58-33.038-20.014-56.083-25.85C718.824 2.828 689.66 0 654.748 0c-35.613 0-65.339 3.002-88.831 9.311-22.802 5.873-41.621 14.54-55.692 26.536l-68.324 56.577-.02.017c-13.575 11.148-23.171 24.9-28.472 41.132-3.661 10.961-5.949 22.543-6.913 34.709v-40.95c0-16.753-2.235-32.452-6.829-47.008-4.44-15.201-12.352-28.346-23.671-39.225-11.491-11.045-26.607-19.18-44.715-24.82-18.355-5.717-40.518-8.409-66.182-8.409H104.023c-4.563 0-9.025.664-13.326 2.042-3.853 1.009-7.65 2.653-10.941 5.278l-.125.1-68.059 57.32-.032.027c-3.89 3.323-6.854 7.418-8.93 12.072Zm101.413 306.18c-3.497 0-5.333-.503-6.194-.859-.353-.852-.851-2.668-.851-6.128V43.907c0-2.547.276-4.182.56-5.135.106-.358.2-.575.255-.687.383-.282 1.925-1.164 6.23-1.164h161.076c46.983 0 75.187 9.46 89.186 24.53 15.14 16.298 23.138 37.877 23.138 65.881v67.16c0 28.004-7.998 49.583-23.138 65.881-13.999 15.069-42.203 24.53-89.186 24.53h-72.44v98.999c0 4.266-.876 5.787-1.154 6.162a4.519 4.519 0 0 1-.71.263c-.967.286-2.618.562-5.181.562h-81.591Zm472.496.342c-20.397-4.999-35.555-11.618-46.13-19.404-10.279-8.173-17.243-17.563-21.308-28.176-4.038-11.837-6.136-25.14-6.136-40.025V124.709c0-14.933 2.112-28.054 6.136-39.507 4.095-11.032 11.105-20.602 21.393-28.762 10.538-8.084 25.658-14.865 46.045-19.862 20.15-4.939 46.138-7.528 78.229-7.528 32.101 0 57.89 2.591 77.659 7.517l.022.006.023.005c20.432 5.009 35.322 11.791 45.452 19.809l.066.052.066.05c10.627 8.173 17.537 17.676 21.264 28.534l.062.181.068.18c4.325 11.392 6.595 24.447 6.595 39.325v178.917c0 14.871-2.268 28.142-6.631 39.948l-.032.084-.03.085c-3.698 10.493-10.589 19.864-21.278 28.088-10.168 7.743-25.118 14.379-45.602 19.4l-.023.006-.022.005c-19.769 4.926-45.558 7.517-77.659 7.517-32.091 0-58.079-2.589-78.229-7.528Z" clip-rule="evenodd"/><path fill="#FF305B" d="M1103.19 111.233h-59.28v103.031h59.28c11.5 0 23.74-2.907 30.2-13.635 4.37-7.257 6.44-15.359 6.44-23.977v-27.808c0-8.617-2.07-16.719-6.44-23.976-6.46-10.729-18.7-13.635-30.2-13.635Z"/><path fill="#FF305B" fill-rule="evenodd" d="m854.913 84.709-.235.526-.182.546c-1.579 4.722-2.194 9.927-2.194 15.317v339.995c0 9.885 2.233 19.757 9.29 26.792 7.05 7.027 16.932 9.245 26.829 9.245h81.591c4.617 0 9.145-.68 13.43-2.249 3.631-1.223 7.627-3.039 10.81-6.005l68.178-56.453.06-.06c4-3.416 6.9-7.692 8.64-12.601 2.09-4.936 2.91-10.348 2.91-15.86v-13.92c15.97-1.212 30.15-3.776 42.38-7.841l.08-.027.09-.03c14.99-5.231 27.76-11.964 37.9-20.451l.03-.025 68.43-56.664.05-.04c13.13-11.103 22.49-24.596 27.79-40.383 5.39-15.391 8.01-32.105 8.01-50.029v-67.16c0-16.753-2.24-32.45-6.83-47.006-4.44-15.202-12.35-28.347-23.67-39.227-11.49-11.045-26.61-19.18-44.72-24.82-18.35-5.717-40.51-8.409-66.18-8.409H956.326c-4.564 0-9.025.664-13.327 2.042-3.852 1.009-7.65 2.653-10.941 5.278l-.125.1-68.026 57.292-.033.027-.032.028c-3.891 3.324-6.854 7.418-8.929 12.072Zm101.413 306.18c-3.497 0-5.334-.503-6.195-.859-.352-.852-.851-2.668-.851-6.128V43.907c0-2.547.276-4.182.56-5.135.106-.358.2-.575.255-.687.383-.282 1.925-1.164 6.231-1.164H1117.4c46.98 0 75.19 9.46 89.19 24.53 15.14 16.298 23.14 37.877 23.14 65.881v67.16c0 28.004-8 49.583-23.14 65.881-14 15.069-42.21 24.53-89.19 24.53h-72.44v98.999c0 4.266-.87 5.787-1.15 6.162a4.83 4.83 0 0 1-.71.263c-.97.286-2.62.562-5.18.562h-81.594Zm310.344-306.18-.23.526-.19.546c-1.58 4.722-2.19 9.927-2.19 15.317v339.995c0 9.885 2.23 19.757 9.29 26.792 7.05 7.027 16.93 9.245 26.83 9.245h81.59c4.62 0 9.14-.68 13.43-2.248 3.63-1.224 7.63-3.039 10.81-6.006l68.17-56.453.07-.06c4-3.416 6.89-7.691 8.64-12.6 2.09-4.936 2.9-10.349 2.9-15.861v-29.023h6.52c4.62 0 9.15-.68 13.43-2.249 3.63-1.223 7.63-3.038 10.81-6.005l68.18-56.453.07-.06c3.99-3.416 6.89-7.693 8.63-12.602 2.09-4.936 2.91-10.347 2.91-15.859v-62.962c0-9.886-2.24-19.758-9.29-26.792-.69-.68-1.39-1.315-2.12-1.908l42.43-35.122.07-.061c4-3.416 6.89-7.693 8.64-12.602 2.09-4.936 2.9-10.348 2.9-15.859V43.907c0-9.885-2.23-19.757-9.29-26.792-7.05-7.027-16.93-9.245-26.83-9.245h-234.77c-4.56 0-9.02.664-13.32 2.042-3.86 1.009-7.65 2.653-10.94 5.278l-.13.1-68.06 57.32-.03.027c-3.89 3.324-6.85 7.418-8.93 12.072Zm101.41 306.18c-3.49 0-5.33-.503-6.19-.859-.35-.852-.85-2.668-.85-6.128V43.907c0-2.547.27-4.182.56-5.135.1-.358.2-.575.25-.687.39-.282 1.93-1.164 6.23-1.164h234.77c2.46 0 3.97.298 4.8.573.34.113.53.207.61.255l.39.435.43.386c.05.08.14.258.25.585.27.814.57 2.31.57 4.752v62.438c0 4.266-.88 5.786-1.16 6.162-.11.057-.33.153-.7.263-.97.285-2.62.562-5.19.562h-146.13v78.37h103.5c2.45 0 3.97.298 4.8.573.33.113.52.207.6.255l.39.436.43.385c.05.08.14.259.25.586.27.814.57 2.31.57 4.752v62.962c0 4.266-.88 5.787-1.15 6.162a4.83 4.83 0 0 1-.71.263c-.97.286-2.62.562-5.18.562h-103.5v115.264c0 4.266-.88 5.786-1.16 6.162-.11.057-.33.153-.7.263-.97.286-2.62.562-5.19.562h-81.59Z" clip-rule="evenodd"/><path fill="#FF305B" d="m1926.41 311.582.17-.143.16-.15c7.61-7.078 11.69-16.149 11.69-26.552v-141.14c0-10.215-4.22-18.99-11.86-25.662-5-4.564-11.84-6.934-18.61-8.302-7.12-1.441-15.75-2.073-25.65-2.073-9.9 0-18.53.632-25.65 2.073-6.77 1.368-13.6 3.738-18.61 8.301-7.64 6.672-11.86 15.448-11.86 25.663v141.14c0 10.403 4.08 19.474 11.69 26.552l.16.15.17.143c5.02 4.341 11.87 6.541 18.61 7.807 7.05 1.325 15.63 1.91 25.49 1.91 9.86 0 18.44-.585 25.49-1.91 6.74-1.266 13.59-3.466 18.61-7.807Z"/><path fill="#FF305B" fill-rule="evenodd" d="M1882.31 0c-35.61 0-65.34 3.001-88.83 9.31-22.8 5.872-41.62 14.54-55.69 26.537l-.08.062-68.25 56.515-.01.012c-13.58 11.15-23.18 24.903-28.48 41.137-5 14.981-7.44 31.121-7.44 48.326v163.177c0 17.557 2.44 34.612 7.33 51.127l.04.119.04.118c5.54 17.371 15.24 32.679 28.85 45.856l.06.059.06.057c14.25 13.416 33.14 23.609 56.05 30.981 23.74 7.878 53.35 11.607 88.45 11.607 35.26 0 64.8-3.002 88.28-9.305 23.13-5.865 42.16-14.529 56.26-26.559l.05-.045 67.73-56.515.04-.037c13.51-11.1 23.11-24.638 28.43-40.541 5.02-14.994 7.46-31.15 7.46-48.372V124.709c0-17.535-2.43-33.864-7.45-48.877-5.35-16.368-15.4-30.129-29.65-41.217-14.08-11.58-33.04-20.016-56.09-25.852C1946.38 2.827 1917.22 0 1882.31 0Zm144.58 343.743c-3.69 10.493-10.59 19.864-21.27 28.088-10.17 7.743-25.12 14.379-45.61 19.4l-.02.006-.02.005c-19.77 4.926-45.56 7.517-77.66 7.517-32.09 0-58.08-2.589-78.23-7.528-20.4-4.999-35.55-11.617-46.13-19.403-10.28-8.173-17.24-17.562-21.31-28.174-4.03-11.837-6.13-25.141-6.13-40.028V124.709c0-14.933 2.11-28.054 6.13-39.507 4.1-11.032 11.11-20.602 21.39-28.761 10.54-8.084 25.66-14.865 46.05-19.863 20.15-4.939 46.14-7.528 78.23-7.528 32.1 0 57.89 2.591 77.66 7.517l.02.006.02.005c20.44 5.009 35.33 11.791 45.46 19.809l.06.052.07.05c10.63 8.173 17.54 17.676 21.26 28.534l.06.181.07.18c4.33 11.392 6.6 24.447 6.6 39.325v178.917c0 14.871-2.27 28.142-6.63 39.948l-.04.084-.03.085Z" clip-rule="evenodd"/><path fill="#FF305B" d="M2323.38 107.56H2272v90.963h51.38c10.48 0 21.68-2.544 28.2-11.934l.12-.168.11-.171c4.63-7.176 6.64-15.469 6.64-24.289v-17.839c0-8.715-1.97-16.969-6.76-23.945-6.41-9.763-17.6-12.617-28.31-12.617Z"/><path fill="#FF305B" fill-rule="evenodd" d="M2197.05 477.13c4.61 0 9.14-.68 13.43-2.248 3.63-1.224 7.62-3.039 10.81-6.005l68.17-56.454.07-.06a29.77 29.77 0 0 0 3-2.95v31.68c0 9.885 2.23 19.757 9.29 26.792 7.05 7.027 16.93 9.245 26.83 9.245h81.59c4.61 0 9.14-.68 13.43-2.249 3.63-1.224 7.62-3.039 10.81-6.006l68.17-56.452.07-.06c4-3.416 6.89-7.691 8.63-12.599 2.1-4.937 2.91-10.35 2.91-15.862V272.669c0-22.606-5.6-42.365-17.57-58.455-7.79-10.786-17.43-19.157-28.8-25.058 2.79-4.44 5.06-9.287 6.8-14.501l.02-.061.02-.061c3.62-11.233 5.31-23.879 5.31-37.757v-24.135c0-29.639-8.45-54.856-26.18-74.565-18.97-21.43-52.06-30.206-94.68-30.206h-175.29c-4.57 0-9.03.664-13.33 2.042-3.85 1.009-7.65 2.653-10.94 5.278l-.12.1-68.06 57.32-.04.027c-3.89 3.325-6.85 7.418-8.92 12.072l-.24.526-.18.546c-1.58 4.722-2.2 9.927-2.2 15.317v339.995c0 9.885 2.24 19.757 9.29 26.792 7.05 7.027 16.94 9.245 26.83 9.245h81.07Zm160.55-207.968H2272v114.74c0 4.265-.88 5.786-1.16 6.162a4.03 4.03 0 0 1-.71.263c-.96.286-2.62.562-5.18.562h-81.06c-3.5 0-5.34-.503-6.2-.859-.35-.852-.85-2.668-.85-6.128V43.907c0-2.547.28-4.182.56-5.135.11-.358.2-.575.26-.687.38-.282 1.92-1.164 6.23-1.164h175.29c38.38 0 60.96 8.165 72.2 20.702l.08.1.1.097c12.66 13.507 19.41 31.4 19.41 54.821v24.135c0 13.504-2.1 24.397-5.86 33.033l-.04.091-.03.091c-2.92 7.017-8.02 12.184-16.23 15.619l-42.46 17.745 45.74 5.065c16.24 1.799 28.67 8.225 38.13 19.074l.05.066.06.066c9.54 10.628 14.86 25.225 14.86 45.043v111.233c0 4.266-.88 5.786-1.16 6.162-.11.057-.34.153-.71.263-.97.286-2.62.562-5.18.562h-81.59c-3.5 0-5.33-.503-6.19-.859-.36-.852-.86-2.668-.86-6.128v-80.276c0-8.688-1.67-17.642-7.4-24.305-6.08-7.907-15.65-10.159-24.5-10.159Zm280.44 207.968c4.62 0 9.15-.68 13.44-2.249 3.63-1.224 7.62-3.039 10.8-6.006l68.18-56.452.07-.06c4-3.416 6.89-7.692 8.63-12.6 2.09-4.936 2.91-10.349 2.91-15.861v-36.539c3.85-.271 7.54-.874 10.98-1.903l.33-.098.32-.116c5.04-1.829 9.64-4.426 13.64-7.879l11.45-9.484v113.21c0 9.642 1.95 19.338 8.38 26.383l.19.209.2.2c7.12 7.101 17.27 9.245 27.35 9.245h81.07c4.61 0 9.14-.68 13.43-2.249 3.63-1.224 7.62-3.039 10.81-6.005l68.17-56.453.07-.06c4-3.416 6.89-7.691 8.63-12.599 2.1-4.937 2.91-10.35 2.91-15.862V43.907c0-9.885-2.23-19.757-9.29-26.792-7.05-7.027-16.93-9.245-26.83-9.245h-85.27c-5.17 0-10.17.64-14.81 2.182l-.21.069-.21.077c-4.02 1.505-7.82 3.675-11.38 6.338l-.25.191-68.07 56.798c-2.26 1.822-4.29 3.989-6.12 6.345l-25.97-47.574-.08-.137c-4.4-7.587-9.79-14.038-16.52-18.223-6.66-4.36-14.52-6.066-22.72-6.066h-84.75c-4.57 0-9.03.664-13.33 2.042-3.85 1.009-7.65 2.653-10.94 5.278l-.13.1-68.05 57.32-.04.027c-3.89 3.325-6.85 7.418-8.93 12.072l-.23.526-.18.546c-1.58 4.722-2.2 9.927-2.2 15.317v339.995c0 9.886 2.24 19.758 9.29 26.792 7.05 7.027 16.93 9.245 26.83 9.245h78.43Zm97.32-283.595-22.37 5.679v184.688c0 4.265-.87 5.786-1.15 6.162-.11.057-.34.153-.71.263-.97.286-2.62.562-5.18.562h-78.43c-3.5 0-5.34-.503-6.2-.859-.35-.852-.85-2.668-.85-6.128V43.907c0-2.547.28-4.182.56-5.135.11-.358.2-.575.26-.687.38-.282 1.92-1.164 6.23-1.164h84.75c3.93 0 5.9.853 6.87 1.53l.21.15.22.14c1.67 1.056 3.97 3.312 6.52 7.828l.02.039 47.33 85.441.02.027c1.8 3.236 3.53 6.102 5.09 8.182l.51.677.6.597c3.79 3.772 8.63 5.572 13.67 5.572h4.74c4.74 0 9.93-1.658 13.67-6.115 2.36-2.501 4.4-5.688 6.2-8.913l.02-.038 46.8-85.43.04-.07c2.54-4.492 4.71-6.827 6.2-7.935 1.56-.927 3.92-1.682 7.61-1.682h85.27c2.46 0 3.97.298 4.8.573.34.113.53.207.61.255l.38.435.44.386c.05.08.14.258.25.585.27.814.57 2.31.57 4.752v339.995c0 4.265-.88 5.786-1.16 6.162-.11.057-.34.153-.71.263-.97.286-2.62.562-5.18.562h-81.06c-3.5 0-5.34-.503-6.2-.859-.35-.852-.85-2.668-.85-6.128V199.214l-22.37-5.679-31.05 57.19-.03.049-.02.048c-2.38 4.467-4.87 7.027-7.17 8.477-1.86 1.046-5.02 1.993-10.22 1.993h-21.05c-4.9 0-8.32-.84-10.71-1.999-2.01-1.467-4.33-4.051-6.68-8.471l-.03-.048-.02-.049-31.06-57.19Z" clip-rule="evenodd"/></svg>