<svg xmlns="http://www.w3.org/2000/svg" width="249" height="85" fill="none"><path fill="#395BD5" fill-rule="evenodd" d="M31.415 46.727V66.99c0 4.974 4.037 9.006 9.017 9.006h9.017c4.98 0 9.017-4.032 9.017-9.006V42.224a4.506 4.506 0 0 0-4.508-4.502H40.431c-4.98 0-9.017 4.032-9.017 9.005ZM22.398 66.99c0 9.946 8.074 18.01 18.034 18.01h9.017c9.96 0 18.034-8.064 18.034-18.01V33.22a4.505 4.505 0 0 0-4.509-4.504H40.432c-9.96 0-18.034 8.064-18.034 18.011V66.99Z" clip-rule="evenodd"/><mask id="b" width="46" height="57" x="22" y="28" maskUnits="userSpaceOnUse" style="mask-type:alpha"><path fill="#395BD5" fill-rule="evenodd" d="M31.415 46.727V66.99c0 4.974 4.037 9.006 9.017 9.006h9.017c4.98 0 9.017-4.032 9.017-9.006V42.224a4.506 4.506 0 0 0-4.508-4.502H40.431c-4.98 0-9.017 4.032-9.017 9.005ZM22.398 66.99c0 9.946 8.074 18.01 18.034 18.01h9.017c9.96 0 18.034-8.064 18.034-18.01V33.22a4.505 4.505 0 0 0-4.509-4.504H40.432c-9.96 0-18.034 8.064-18.034 18.011V66.99Z" clip-rule="evenodd"/></mask><g filter="url(#a)" mask="url(#b)"><path fill="#395BD5" d="M22.4 56.283h4.365c1.567 0 3.805-.343 5.255-.718v-9.907c-1.333.777-2.441 1.58-5.256 1.58H22.4v9.045Z"/></g><path fill="#7857CD" fill-rule="evenodd" d="M35.837 38.273V18.01c0-4.974-4.01-9.006-8.959-9.006h-8.96c-4.948 0-8.959 4.032-8.959 9.006v24.765c0 2.486 2.006 4.502 4.48 4.502h13.439c4.948 0 8.96-4.032 8.96-9.005Zm8.96-20.262C44.797 8.064 36.774 0 26.878 0h-8.96C8.023 0 0 8.064 0 18.01v33.77c0 2.488 2.005 4.504 4.48 4.504h22.398c9.896 0 17.919-8.064 17.919-18.011V18.01Z" clip-rule="evenodd"/><mask id="d" width="45" height="57" x="0" y="0" maskUnits="userSpaceOnUse" style="mask-type:alpha"><path fill="#7857CD" fill-rule="evenodd" d="M35.837 38.273V18.01c0-4.974-4.01-9.006-8.959-9.006h-8.96c-4.948 0-8.959 4.032-8.959 9.006v24.765c0 2.486 2.006 4.502 4.48 4.502h13.439c4.948 0 8.96-4.032 8.96-9.005Zm8.96-20.262C44.797 8.064 36.774 0 26.878 0h-8.96C8.023 0 0 8.064 0 18.01v33.77c0 2.488 2.005 4.504 4.48 4.504h22.398c9.896 0 17.919-8.064 17.919-18.011V18.01Z" clip-rule="evenodd"/></mask><g filter="url(#c)" mask="url(#d)"><path fill="#395BD5" d="M44.797 28.716h-4.365c-1.567 0-3.662.343-5.112.718l.144 9.764c1.333-.777 3.314-1.476 4.968-1.476h4.365v-9.006Z"/></g><path fill="#FAFEFF" d="M130.853 64.267a.451.451 0 0 1-.452-.451v-32.96a.45.45 0 0 1 .452-.45h7.699a.45.45 0 0 1 .451.45v32.96a.45.45 0 0 1-.451.45h-7.699Z"/><path fill="#7857CD" d="M134.702 26.446c-1.547 0-2.867-.501-3.959-1.502-1.047-1.002-1.57-2.322-1.57-3.96s.523-2.958 1.57-3.96c1.092-1 2.412-1.502 3.959-1.502 1.593 0 2.913.501 3.96 1.502 1.047 1.002 1.57 2.322 1.57 3.96s-.523 2.958-1.57 3.96c-1.047 1-2.367 1.502-3.96 1.502Z"/><path fill="#FAFEFF" fill-rule="evenodd" d="M90.709 64.267a.451.451 0 0 1-.451-.451V16.929a.45.45 0 0 1 .45-.45h20.304c3.004 0 5.621.523 7.851 1.57 2.23 1.046 3.959 2.525 5.188 4.437 1.229 1.912 1.843 4.164 1.843 6.759v.819c0 2.867-.682 5.188-2.048 6.963-1.301 1.692-2.892 2.95-4.773 3.774a.463.463 0 0 0-.279.42v.497c0 .24.189.438.429.462 1.615.164 2.883.79 3.804 1.88 1.001 1.137 1.502 2.662 1.502 4.573v15.183a.45.45 0 0 1-.451.45h-8.109a.45.45 0 0 1-.451-.45V49.93c0-1.092-.296-1.98-.888-2.662-.546-.683-1.479-1.024-2.799-1.024h-12.11a.451.451 0 0 0-.452.45v17.122a.45.45 0 0 1-.45.45h-8.11Zm8.56-26.667c0 .25.202.451.451.451h10.336c2.139 0 3.8-.569 4.984-1.706 1.228-1.184 1.843-2.731 1.843-4.643v-.682c0-1.912-.592-3.437-1.775-4.574-1.183-1.184-2.867-1.775-5.052-1.775H99.721a.451.451 0 0 0-.452.45v12.48Z" clip-rule="evenodd"/><path fill="#FAFEFF" d="M143.51 63.816c0 .249.202.45.451.45h7.7a.451.451 0 0 0 .451-.45V47.063c0-3.14.728-5.575 2.185-7.305 1.456-1.775 3.504-2.662 6.144-2.662 2.321 0 4.096.637 5.325 1.911 1.275 1.275 1.912 3.186 1.912 5.735v19.074c0 .249.202.45.451.45h7.7a.451.451 0 0 0 .451-.45V44.059c0-2.822-.547-5.28-1.639-7.373-1.092-2.14-2.64-3.8-4.642-4.984-1.957-1.229-4.256-1.843-6.895-1.843-3.05 0-5.325.546-6.827 1.638-1.392.97-2.374 2-2.945 3.087a.474.474 0 0 1-.416.259h-.489a.451.451 0 0 1-.451-.451v-3.536a.451.451 0 0 0-.451-.45h-7.564a.451.451 0 0 0-.451.45v32.96Z"/><path fill="#FAFEFF" fill-rule="evenodd" d="M179.558 47.473V46.38c0-3.55.705-6.576 2.116-9.08 1.411-2.548 3.277-4.483 5.598-5.802 2.367-1.366 4.938-2.049 7.715-2.049 3.094 0 5.438.547 7.031 1.639 1.498 1.027 2.613 2.094 3.346 3.201.087.13.231.212.388.212h.526a.451.451 0 0 0 .451-.45v-3.195a.45.45 0 0 1 .451-.45h7.563a.45.45 0 0 1 .451.45v39.419c0 2.32-.682 4.164-2.048 5.53-1.365 1.41-3.186 2.116-5.461 2.116H185.47a.451.451 0 0 1-.451-.451v-6.608a.45.45 0 0 1 .451-.45h19.211c1.274 0 1.911-.684 1.911-2.049v-8.356a.451.451 0 0 0-.451-.45h-.527c-.156 0-.3.08-.386.21-.443.662-1.035 1.343-1.776 2.042-.819.728-1.912 1.343-3.277 1.844-1.365.5-3.095.75-5.188.75-2.777 0-5.348-.66-7.715-1.98-2.321-1.365-4.187-3.3-5.598-5.802-1.411-2.549-2.116-5.598-2.116-9.148Zm17.886 9.42c2.64 0 4.847-.841 6.622-2.525 1.775-1.684 2.663-4.05 2.663-7.1v-.683c0-3.095-.888-5.462-2.663-7.1-1.729-1.684-3.936-2.526-6.622-2.526-2.639 0-4.847.842-6.622 2.526-1.775 1.639-2.662 4.005-2.662 7.1v.683c0 3.05.887 5.416 2.662 7.1 1.775 1.684 3.983 2.526 6.622 2.526Z" clip-rule="evenodd"/><path fill="#FAFEFF" d="M223.593 62.355c2.821 1.912 6.44 2.868 10.854 2.868 4.324 0 7.76-.956 10.309-2.868 2.594-1.957 3.892-4.71 3.892-8.26 0-2.367-.615-4.233-1.844-5.598-1.183-1.411-2.822-2.48-4.915-3.209-2.048-.774-4.347-1.388-6.895-1.843l-1.912-.342c-1.547-.273-2.776-.66-3.686-1.16-.911-.546-1.366-1.366-1.366-2.458 0-1.001.433-1.775 1.297-2.321.865-.592 2.117-.888 3.755-.888 1.639 0 3.004.364 4.096 1.093 1.03.659 1.742 1.727 2.139 3.206a.47.47 0 0 0 .586.335l7.094-2.183a.44.44 0 0 0 .294-.552c-.819-2.537-2.415-4.603-4.788-6.2-2.503-1.684-5.643-2.526-9.421-2.526-4.005 0-7.236.91-9.694 2.731-2.458 1.775-3.687 4.347-3.687 7.715 0 2.23.592 4.05 1.775 5.461 1.184 1.411 2.754 2.526 4.711 3.346 1.957.773 4.119 1.388 6.485 1.843l1.912.341c2.003.364 3.459.842 4.369 1.434.911.546 1.366 1.342 1.366 2.39 0 1.046-.478 1.934-1.434 2.662-.956.682-2.435 1.024-4.438 1.024-1.319 0-2.548-.182-3.686-.546a6.726 6.726 0 0 1-2.799-1.98c-.656-.82-1.145-1.916-1.469-3.289a.463.463 0 0 0-.563-.347l-7.058 1.826a.442.442 0 0 0-.326.51c.651 3.352 2.334 5.947 5.047 7.785Z"/><defs><filter id="a" width="29.619" height="30.625" x="12.4" y="38.658" color-interpolation-filters="sRGB" filterUnits="userSpaceOnUse"><feFlood flood-opacity="0" result="BackgroundImageFix"/><feColorMatrix in="SourceAlpha" result="hardAlpha" values="0 0 0 0 0 0 0 0 0 0 0 0 0 0 0 0 0 0 127 0"/><feOffset dy="3"/><feGaussianBlur stdDeviation="5"/><feComposite in2="hardAlpha" operator="out"/><feColorMatrix values="0 0 0 0 0 0 0 0 0 0 0 0 0 0 0 0 0 0 0.3 0"/><feBlend in2="BackgroundImageFix" result="effect1_dropShadow_43_373"/><feBlend in="SourceGraphic" in2="effect1_dropShadow_43_373" result="shape"/></filter><filter id="c" width="29.477" height="30.481" x="25.32" y="21.716" color-interpolation-filters="sRGB" filterUnits="userSpaceOnUse"><feFlood flood-opacity="0" result="BackgroundImageFix"/><feColorMatrix in="SourceAlpha" result="hardAlpha" values="0 0 0 0 0 0 0 0 0 0 0 0 0 0 0 0 0 0 127 0"/><feOffset dy="3"/><feGaussianBlur stdDeviation="5"/><feComposite in2="hardAlpha" operator="out"/><feColorMatrix values="0 0 0 0 0 0 0 0 0 0 0 0 0 0 0 0 0 0 0.3 0"/><feBlend in2="BackgroundImageFix" result="effect1_dropShadow_43_373"/><feBlend in="SourceGraphic" in2="effect1_dropShadow_43_373" result="shape"/></filter></defs></svg>