<svg width="1475" height="69" viewBox="0 0 1475 69" fill="none" xmlns="http://www.w3.org/2000/svg">
<g clip-path="url(#clip0_49_39)">
<path d="M1359.35 1.28366H1400.19V12.3687H1371.03V26.0225H1398.61V37.1075H1371.03V56.946H1400.19V68.0311H1359.35V1.28366Z" fill="#221F20"/>
<path d="M1461.84 22.3868C1461.25 16.5972 1459.89 9.12816 1449.18 9.12816C1441.33 9.12816 1437.6 13.0603 1437.6 18.3558C1437.6 34.4598 1474.81 18.257 1474.81 47.422C1474.81 60.977 1464.29 69.0191 1449.18 69.0191C1430.33 69.0191 1422.38 57.3412 1423.94 46.1574H1436.31C1436.81 53.7252 1437.78 60.1866 1449.57 60.1866C1459.2 60.1866 1462.54 55.4838 1462.54 50.3661C1462.54 33.373 1425.23 49.0818 1425.23 19.9366C1425.23 8.75273 1434.56 0.295685 1448.88 0.295685C1467.04 0.295685 1474.61 9.72094 1473.62 22.3868H1461.84Z" fill="#221F20"/>
<path d="M236.461 49.6746H214.469L207.296 68.0311H194.927L220.476 1.28366H230.494L256.023 68.0311H243.654L236.481 49.6746H236.461ZM232.351 38.8661L225.475 21.3L218.599 38.8661H232.351Z" fill="#221F20"/>
<path d="M286.235 13.0603H268.768V1.28366H315.499V13.0603H298.032V68.0311H286.255V13.0603H286.235Z" fill="#221F20"/>
<path d="M341.878 1.28366H382.721V12.3687H353.556V26.0225H381.14V37.1075H353.556V56.946H382.721V68.0311H341.878V1.28366Z" fill="#221F20"/>
<path d="M411.372 1.28366H439.055C453.578 1.28366 460.454 8.45634 460.454 20.3318C460.454 27.8996 455.455 32.8 448.875 35.8429C453.005 37.7991 454.764 41.5337 455.455 45.4658L456.937 53.8043C457.925 59.3962 460.968 64.8893 465.671 68.0311H450.258C446.721 66.4503 445.437 62.2416 444.568 56.0569L443.481 48.489C442.691 43.1935 440.537 39.3601 434.648 39.3601H423.069V68.0311H411.392V1.28366H411.372ZM423.05 12.3687V28.2751H438.758C445.437 28.2751 448.282 25.4297 448.282 20.3318C448.282 15.2338 444.844 12.3885 439.055 12.3885H423.05V12.3687Z" fill="#221F20"/>
<path d="M499.598 13.0603H482.131V1.28366H528.862V13.0603H511.394V68.0311H499.618V13.0603H499.598Z" fill="#221F20"/>
<path d="M547.791 34.6574C547.791 13.5543 560.852 0.295685 577.43 0.295685C594.009 0.295685 607.267 13.5543 607.267 34.6574C607.267 55.7605 594.009 69.0191 577.43 69.0191C560.852 69.0191 547.791 55.7605 547.791 34.6574ZM594.997 34.6574C594.997 20.4306 587.725 11.9735 577.43 11.9735C567.136 11.9735 559.963 20.4108 559.963 34.6574C559.963 48.9039 567.136 57.3412 577.43 57.3412C587.725 57.3412 594.997 48.9039 594.997 34.6574Z" fill="#221F20"/>
<path d="M649.671 49.6746L659.788 1.28366H676.761L686.68 49.9709L697.963 1.28366H709.74L693.537 68.0311H679.409L668.028 15.4117L656.844 68.0311H642.815L626.394 1.28366H638.665L649.671 49.6746Z" fill="#221F20"/>
<path d="M732.503 1.28366H773.345V12.3687H744.18V26.0225H771.765V37.1075H744.18V56.946H773.345V68.0311H732.503V1.28366Z" fill="#221F20"/>
<path d="M801.977 1.28366H829.66C844.183 1.28366 851.06 8.45634 851.06 20.3318C851.06 27.8996 846.06 32.8 839.481 35.8429C843.61 37.7991 845.369 41.5337 846.06 45.4658L847.542 53.8043C848.53 59.3962 851.573 64.8893 856.276 68.0311H840.864C837.327 66.4503 836.042 62.2416 835.173 56.0569L834.086 48.489C833.296 43.1935 831.142 39.3601 825.254 39.3601H813.675V68.0311H801.997V1.28366H801.977ZM813.675 12.3687V28.2751H829.383C836.062 28.2751 838.907 25.4297 838.907 20.3318C838.907 15.2338 835.469 12.3885 829.68 12.3885H813.675V12.3687Z" fill="#221F20"/>
<path d="M989.158 1.28366H1030V12.3687H1000.84V26.0225H1028.42V37.1075H1000.84V56.946H1030V68.0311H989.158V1.28366Z" fill="#221F20"/>
<path d="M1058.63 1.28366H1071.4L1095.35 44.7742V1.28366H1106.63V68.0311H1093.86L1069.91 24.5405V68.0311H1058.63V1.28366Z" fill="#221F20"/>
<path d="M1150.51 13.0603H1133.05V1.28366H1179.78V13.0603H1162.31V68.0311H1150.53V13.0603H1150.51Z" fill="#221F20"/>
<path d="M1252.39 48.5878C1252.39 60.6608 1242.77 68.9993 1228.84 68.9993C1213.92 68.9993 1205.68 59.2776 1205.68 47.5998V1.28366H1217.26V46.928C1217.26 53.0139 1221.09 57.2424 1228.94 57.2424C1235.82 57.2424 1240.72 54.1995 1240.72 48.1136V1.28366H1252.39V48.6075V48.5878Z" fill="#221F20"/>
<path d="M1283.4 1.28366H1311.08C1325.6 1.28366 1332.48 8.45634 1332.48 20.3318C1332.48 27.8996 1327.48 32.8 1320.9 35.8429C1325.03 37.7991 1326.79 41.5337 1327.48 45.4658L1328.96 53.8043C1329.95 59.3962 1332.99 64.8893 1337.7 68.0311H1322.28C1318.75 66.4503 1317.46 62.2416 1316.59 56.0569L1315.51 48.489C1314.71 43.1935 1312.56 39.3601 1306.67 39.3601H1295.09V68.0311H1283.42V1.28366H1283.4ZM1295.07 12.3687V28.2751H1310.78C1317.46 28.2751 1320.31 25.4297 1320.31 20.3318C1320.31 15.2338 1316.87 12.3885 1311.08 12.3885H1295.07V12.3687Z" fill="#221F20"/>
<path d="M139.858 0.652037L129.741 49.3196L118.755 0.652037H106.444L122.884 67.7947H136.953L148.176 14.8393L155.942 50.5249L162.779 29.7972L160.23 16.7165L156.91 0.612518H139.877L139.858 0.652037Z" fill="#221F20"/>
<path d="M158.787 68.0322L179.317 6.87665C180.621 2.98404 184.376 0.435068 188.486 0.652422L194.255 0.968574L173.627 61.4918C172.283 65.4041 168.608 68.0322 164.478 68.0322H158.827H158.787Z" fill="#221F20"/>
<path d="M34.2036 -5.80288e-05C28.8488 -0.27669 23.8101 2.92434 22.0515 7.78517L0 68.9604H9.89949C15.2938 68.9604 20.1151 65.7199 21.8737 60.8986L44.0241 0.513688L34.2036 -5.80288e-05Z" fill="black"/>
<path d="M64.6528 0.000259746C59.2782 -0.296132 54.2593 2.92466 52.5205 7.78548L30.4492 68.9607H40.3486C45.743 68.9607 50.5643 65.7202 52.3229 60.8989L74.4732 0.514005L64.6528 0.000259746Z" fill="black"/>
<path d="M919.98 1.26472H907.868L926.046 50.6436L931.935 34.8163L919.96 1.24496L919.98 1.26472Z" fill="#221F20"/>
<path d="M929.109 68.1702L949.501 7.40985C950.805 3.537 954.52 1.00779 958.61 1.22515L964.34 1.5413L943.83 61.6693C942.506 65.5619 938.851 68.1702 934.741 68.1702H929.129H929.109Z" fill="#221F20"/>
</g>
<defs>
<clipPath id="clip0_49_39">
<rect width="1474.79" height="69" fill="white"/>
</clipPath>
</defs>
</svg>
